<?xml version="1.0" standalone="no"?>
<!DOCTYPE svg PUBLIC "-//W3C//DTD SVG 20010904//EN"
 "http://www.w3.org/TR/2001/REC-SVG-20010904/DTD/svg10.dtd">
<svg version="1.0" xmlns="http://www.w3.org/2000/svg"
 width="120.000000pt" height="120.000000pt" viewBox="0 0 120.000000 120.000000"
 preserveAspectRatio="xMidYMid meet">
<metadata>
Created by potrace 1.13, written by Peter Selinger 2001-2015
</metadata>
<g transform="translate(0.000000,120.000000) scale(0.100000,-0.100000)"
fill="#000000" stroke="none">
<path d="M534 1103 c-70 -151 -77 -174 -78 -258 -1 -70 3 -88 29 -140 l29 -60
9 35 c15 60 24 75 51 89 34 19 70 1 86 -43 29 -76 26 -75 51 -21 33 74 31 179
-5 265 -31 76 -106 202 -124 208 -6 2 -27 -30 -48 -75z"/>
<path d="M76 769 c-38 -5 -72 -11 -74 -14 -7 -6 100 -145 151 -195 73 -74 177
-112 262 -96 l36 7 -39 29 c-40 28 -58 67 -47 100 8 25 59 44 100 37 44 -7 44
3 1 51 -57 63 -115 86 -226 88 -52 2 -126 -2 -164 -7z"/>
<path d="M849 766 c-55 -19 -107 -54 -134 -90 -14 -18 -25 -35 -25 -38 0 -3
23 -3 50 0 62 6 90 -14 90 -64 0 -26 -9 -40 -41 -68 l-41 -35 36 -7 c92 -17
199 28 281 118 65 72 131 166 122 174 -22 22 -282 30 -338 10z"/>
<path d="M410 438 c-49 -14 -112 -64 -150 -120 -31 -44 -100 -244 -100 -288 0
-16 5 -17 38 -9 75 16 217 72 258 99 64 45 124 137 124 192 0 17 -3 17 -37 -7
-43 -29 -84 -32 -108 -8 -22 22 -15 85 15 125 22 30 17 33 -40 16z"/>
<path d="M760 415 c31 -50 25 -105 -15 -124 -27 -13 -33 -12 -77 12 -27 15
-48 23 -48 19 0 -5 7 -29 16 -55 17 -51 78 -125 127 -155 41 -25 231 -92 262
-92 l23 0 -28 107 c-36 130 -71 203 -123 250 -41 37 -109 72 -140 73 -17 0
-17 -2 3 -35z"/>
</g>
</svg>
